<?xml version="1.0" standalone="no"?>
<!DOCTYPE svg PUBLIC "-//W3C//DTD SVG 20010904//EN"
 "http://www.w3.org/TR/2001/REC-SVG-20010904/DTD/svg10.dtd">
<svg version="1.0" xmlns="http://www.w3.org/2000/svg"
 width="1280.000000pt" height="640.000000pt" viewBox="0 0 1280.000000 640.000000"
 preserveAspectRatio="xMidYMid meet">
<metadata>
Created by potrace 1.15, written by Peter Selinger 2001-2017
</metadata>
<g transform="translate(0.000000,640.000000) scale(0.100000,-0.100000)"
fill="#000000" stroke="none">
<path d="M7683 5880 c-160 -32 -179 -145 -36 -222 92 -50 233 -56 299 -13 22
14 26 11 93 -62 58 -63 71 -84 77 -120 3 -24 4 -46 1 -49 -8 -9 -117 59 -117
72 0 6 -28 24 -62 39 -52 23 -82 29 -170 33 -147 6 -212 -3 -249 -36 -20 -17
-28 -33 -24 -43 8 -22 76 -58 138 -75 62 -16 241 -18 285 -3 30 10 36 8 96
-35 56 -40 65 -51 71 -87 4 -22 5 -42 2 -45 -2 -2 -35 3 -73 12 -90 21 -374
13 -511 -14 -51 -10 -94 -15 -95 -10 -2 5 -51 -2 -108 -16 -58 -14 -135 -32
-172 -41 -38 -8 -87 -27 -110 -42 -24 -15 -44 -28 -45 -28 -8 -4 20 -75 30
-75 7 -1 2 -9 -9 -19 -28 -23 -21 -64 15 -92 21 -17 36 -20 86 -16 33 3 80 10
105 16 25 6 90 21 145 33 72 17 100 27 100 38 0 11 27 19 110 33 154 25 376
20 455 -11 96 -38 205 -146 328 -325 l63 -92 -38 -7 c-21 -4 -66 -7 -100 -7
-67 -1 -72 -4 -48 -31 14 -15 8 -20 -64 -52 l-80 -36 -16 48 c-44 132 -163
228 -338 274 -483 126 -1428 -132 -2084 -568 -279 -186 -493 -410 -568 -595
-19 -47 -25 -79 -25 -140 0 -44 5 -83 10 -86 6 -3 10 -11 10 -16 0 -6 -4 -8
-9 -5 -4 3 -230 -73 -502 -169 -272 -96 -510 -177 -529 -179 -96 -13 -252 -17
-365 -11 -121 7 -127 9 -184 44 -93 57 -108 73 -116 114 -5 29 -3 37 6 32 9
-6 10 2 5 31 -58 318 -392 630 -826 772 -220 72 -382 96 -645 96 -362 -1 -625
-61 -968 -222 -64 -30 -117 -58 -117 -62 0 -4 53 -48 118 -98 l119 -90 109 53
c119 59 251 105 386 134 100 22 92 27 103 -69 l7 -56 -73 -12 c-171 -29 -385
-121 -559 -238 -86 -58 -235 -197 -326 -306 -38 -45 -127 -197 -169 -288 -17
-36 -32 -67 -35 -70 -14 -14 -79 -297 -80 -347 0 -17 -3 -33 -8 -35 -7 -3 2
-292 12 -368 10 -79 91 -335 130 -410 202 -389 507 -654 922 -803 l90 -32
-210 -2 c-221 -3 -608 -19 -687 -29 -46 -6 -78 -19 -69 -28 11 -10 221 -26
485 -36 502 -19 1347 -29 3320 -42 1574 -9 2332 -9 4020 2 1144 7 2145 16
2225 19 104 4 166 2 220 -8 117 -22 452 -20 565 2 95 19 121 22 410 32 176 6
365 22 375 31 10 11 -27 23 -85 29 -33 4 -125 10 -205 13 l-145 7 60 34 c130
74 215 139 321 245 207 207 323 428 369 706 27 156 17 365 -24 523 -66 258
-228 520 -431 694 -298 257 -662 385 -1050 370 -166 -7 -254 -22 -407 -72
-151 -48 -364 -162 -454 -241 -13 -12 -20 -9 -53 25 l-37 38 63 45 c124 88
303 179 561 287 88 36 105 40 318 61 228 23 280 33 263 50 -5 5 -73 15 -150
21 -382 32 -775 -68 -1091 -277 -44 -30 -83 -54 -86 -54 -5 0 -750 769 -813
839 l-39 44 30 -6 c17 -3 75 -16 130 -28 55 -11 121 -21 146 -20 25 0 60 -4
77 -9 18 -5 32 -5 32 0 0 5 12 15 28 22 l27 13 3 329 c1 225 -1 333 -9 342 -6
7 -24 16 -40 19 -19 4 -29 13 -29 25 0 17 -3 17 -52 4 -66 -17 -68 -17 -68 0
0 10 -45 1 -177 -36 -253 -70 -421 -136 -497 -193 -19 -15 -19 -16 10 -47 16
-18 1 -9 -32 20 -39 33 -71 52 -87 52 -33 0 -79 66 -56 81 8 5 17 9 22 9 4 0
7 5 7 12 0 19 -165 258 -228 330 l-59 68 -13 199 c-12 189 -14 202 -36 222
-13 13 -24 27 -24 33 0 6 -41 55 -91 109 -49 54 -94 109 -99 122 -16 41 -109
95 -181 105 -73 11 -88 11 -146 0z m534 -700 c4 -12 7 -11 13 5 7 16 9 11 9
-19 1 -38 1 -39 -19 -21 -14 12 -20 30 -19 54 1 20 3 27 6 16 2 -11 7 -27 10
-35z m1136 -401 c-5 -5 -62 -26 -126 -45 -200 -59 -355 -127 -424 -186 -21
-18 -30 -23 -20 -12 9 11 17 30 17 41 0 33 128 83 490 192 36 10 67 20 70 20
2 1 -1 -4 -7 -10z m-1276 -574 c-3 -30 -5 -55 -3 -55 1 0 57 22 124 49 67 27
122 46 122 43 0 -3 -9 -15 -20 -27 l-20 -22 189 -174 c105 -96 184 -175 177
-177 -8 -2 -31 4 -52 13 -36 15 -39 15 -54 -3 -16 -20 -90 -24 -890 -48 l-205
-6 -355 -89 c-195 -48 -356 -87 -358 -85 -1 2 49 49 113 103 105 92 119 101
167 108 29 4 246 9 482 10 l429 3 15 28 c36 68 103 245 118 312 9 39 18 72 21
72 3 0 3 -25 0 -55z m1052 -91 c10 -9 -35 -3 -49 6 -11 8 -7 9 15 4 17 -4 32
-8 34 -10z m-7121 -284 c129 -14 228 -36 366 -81 137 -45 336 -136 336 -154 0
-7 14 -19 32 -26 54 -22 198 -122 298 -206 131 -111 257 -263 375 -455 30 -48
55 -90 55 -92 0 -4 -119 -46 -131 -46 -4 0 -31 45 -60 100 -178 340 -502 616
-882 749 -145 51 -273 73 -459 78 -166 5 -168 6 -168 28 0 12 -3 43 -6 69 l-7
46 79 0 c44 0 121 -5 172 -10z m6819 -143 c72 -74 176 -224 232 -335 62 -122
65 -145 66 -502 1 -225 5 -343 14 -385 30 -140 115 -266 230 -344 62 -42 190
-108 264 -136 l47 -18 2 -56 c1 -31 2 -72 3 -91 0 -19 3 -39 7 -45 3 -5 15
-46 27 -90 12 -44 34 -108 48 -143 14 -35 26 -69 27 -75 1 -7 9 -23 17 -37 9
-14 35 -56 59 -95 133 -215 295 -373 518 -504 39 -24 72 -44 72 -45 0 0 -73 3
-162 8 -195 11 -7397 14 -7678 4 l-195 -8 112 48 c140 61 239 117 346 198 104
78 250 231 318 333 29 42 55 75 60 74 5 -2 10 3 10 10 1 6 2 17 3 22 0 6 18
46 39 89 48 99 83 203 108 320 11 50 22 92 24 94 8 8 135 -10 135 -19 0 -4
-34 -95 -75 -201 -107 -272 -125 -330 -132 -429 -5 -78 -4 -90 18 -129 32 -56
87 -87 180 -100 118 -17 2221 -124 3033 -155 351 -13 397 -13 465 1 173 36
412 142 778 345 24 13 41 29 39 34 -6 18 33 104 82 178 49 73 100 175 132 258
17 46 17 47 -6 77 l-24 30 176 503 c96 277 243 698 325 934 82 237 151 436
154 443 9 25 33 10 102 -61z m-327 56 c0 -12 -122 -347 -130 -356 -3 -4 -179
66 -391 156 -211 90 -391 166 -399 170 -18 7 -27 6 360 21 391 16 560 18 560
9z m955 -398 c160 -153 294 -282 299 -286 5 -5 -16 -39 -46 -76 -186 -230
-271 -436 -286 -691 l-7 -112 -51 45 c-66 57 -109 122 -136 205 -21 61 -22 85
-23 400 -2 306 -4 342 -23 412 -11 42 -33 99 -47 128 l-26 52 40 -32 40 -32
76 27 76 28 -23 26 c-13 14 -77 85 -143 156 -136 149 -117 132 280 -250z
m-3388 279 c168 -57 172 -59 140 -70 -101 -35 -236 -120 -360 -226 -38 -32
-72 -58 -77 -58 -4 0 -48 43 -96 96 l-88 96 -47 -4 c-28 -3 -91 -26 -162 -61
-65 -31 -117 -52 -117 -46 0 5 -21 9 -47 9 l-48 1 40 34 c87 74 242 154 428
220 99 35 239 74 252 71 6 -1 88 -29 182 -62z m1451 -23 c266 -106 409 -170
582 -256 162 -81 210 -107 210 -115 0 -4 -16 -12 -36 -19 -40 -14 -40 -20 -1
-23 15 -1 27 -3 27 -4 0 -2 -114 -319 -324 -903 -59 -162 -107 -296 -109 -297
-1 -1 -47 -28 -102 -60 -55 -32 -102 -59 -104 -61 -2 -1 2 -9 8 -17 9 -11 9
-16 0 -22 -9 -5 6 -24 45 -58 l57 -51 -32 -90 c-17 -50 -35 -97 -40 -106 -13
-25 -65 -27 -259 -13 -96 8 -246 18 -333 23 -87 5 -161 11 -163 14 -3 3 69 99
161 213 190 240 301 393 371 514 75 128 87 162 82 215 -9 76 -47 118 -216 241
-2 1 9 21 24 43 18 28 34 41 49 41 28 0 47 37 97 183 l33 99 -45 39 c-76 67
-320 202 -472 263 -104 41 -120 38 -211 -45 -43 -39 -79 -70 -80 -68 -1 2 -12
25 -24 51 -26 54 -81 119 -137 160 l-39 28 36 0 c20 0 43 7 52 17 14 14 18 14
26 2 5 -8 9 -17 9 -21 0 -15 38 -6 335 77 165 46 306 84 313 84 7 1 101 -35
210 -78z m-2323 -303 c-11 -6 -44 -26 -73 -46 -64 -44 -227 -90 -208 -60 6 10
29 25 51 33 22 8 81 30 130 49 89 34 141 47 100 24z m-3040 -119 c213 -55 406
-174 550 -341 28 -32 55 -71 61 -88 5 -17 13 -28 16 -25 7 7 65 -86 70 -110 2
-13 -12 -23 -57 -41 -33 -13 -65 -23 -70 -23 -6 -1 -21 23 -34 52 -13 28 -42
79 -64 112 -22 33 -40 68 -39 78 0 10 -4 17 -10 15 -7 -3 -38 21 -71 51 -116
109 -212 165 -353 206 -47 14 -106 25 -130 25 -43 0 -44 0 -74 60 -16 33 -30
61 -30 63 0 8 163 -15 235 -34z m-431 -25 c11 -81 11 -81 -51 -104 -191 -71
-351 -216 -443 -402 -49 -102 -76 -206 -86 -332 l-7 -95 -38 -27 c-21 -14 -77
-66 -124 -116 -47 -49 -89 -87 -94 -84 -5 3 -14 55 -20 114 -46 409 169 803
539 991 52 26 120 55 150 64 167 49 166 49 174 -9z m3309 -84 c47 -156 66
-200 88 -200 13 0 33 -24 66 -81 47 -82 76 -106 114 -94 14 5 29 -12 71 -77
97 -148 151 -239 146 -243 -2 -3 -82 -32 -177 -65 -169 -59 -229 -70 -288 -54
-21 6 -23 12 -23 75 l0 68 84 3 84 3 -59 154 c-76 200 -152 353 -198 401 -43
45 -79 57 -225 72 l-109 11 49 20 c114 45 216 77 251 78 21 1 49 5 63 9 14 4
28 8 31 9 3 1 18 -40 32 -89z m-3163 66 c0 -8 3 -21 6 -30 4 -11 1 -16 -10
-16 -9 0 -16 3 -16 8 0 4 -3 17 -6 30 -5 16 -2 22 10 22 9 0 16 -6 16 -14z
m8100 -298 c0 -5 -10 -19 -23 -32 -31 -30 -131 -198 -158 -263 -12 -29 -26
-53 -30 -53 -5 0 -9 -10 -9 -22 0 -13 -9 -52 -20 -87 -30 -93 -53 -218 -51
-275 2 -48 2 -48 -26 -42 -29 7 -195 87 -190 92 1 2 40 -6 85 -18 46 -11 85
-19 87 -17 2 3 36 126 75 274 69 260 117 397 168 479 l24 38 34 -33 c19 -18
34 -37 34 -41z m1337 27 c323 -74 606 -315 712 -605 114 -312 61 -631 -145
-884 l-46 -57 -50 68 c-27 37 -65 96 -84 130 l-35 62 26 51 c151 299 22 669
-292 832 -56 29 -63 37 -83 88 -33 80 -87 179 -125 225 -18 22 -36 55 -39 73
-6 25 -13 32 -31 32 -13 0 -26 4 -29 8 -7 11 139 -4 221 -23z m-349 -29 c37
-54 58 -112 74 -207 13 -80 8 -89 -47 -89 -49 0 -144 -28 -222 -65 l-73 -34
-112 120 c-62 66 -114 124 -115 127 -4 10 102 76 182 114 73 34 212 76 256 77
19 1 33 -10 57 -43z m-4838 -106 c91 -46 162 -63 232 -55 l60 7 -41 -60 c-22
-34 -41 -67 -41 -75 0 -7 11 -20 25 -27 14 -7 25 -16 25 -19 0 -3 -14 -21 -31
-39 -30 -34 -37 -34 -75 -1 -20 18 -22 18 -88 -17 -38 -20 -71 -32 -75 -27 -3
5 -20 29 -38 55 l-32 45 24 11 c14 7 25 19 25 28 0 9 -36 76 -80 149 -44 73
-80 136 -80 139 0 3 30 -15 67 -40 36 -25 92 -58 123 -74z m-4126 73 c4 -9 12
-64 18 -122 9 -87 15 -109 32 -124 21 -17 21 -17 -7 -7 -16 5 -50 10 -76 10
l-47 0 -13 108 c-7 59 -15 117 -18 130 -5 21 -2 22 50 22 42 0 56 -4 61 -17z
m211 -47 c88 -42 171 -110 222 -184 48 -68 60 -101 42 -113 -7 -4 -43 -5 -80
-2 -67 6 -68 5 -114 -33 -42 -34 -48 -36 -56 -21 -6 9 -27 37 -48 61 -33 38
-39 52 -45 112 -3 38 -15 104 -25 147 l-19 79 27 -7 c14 -3 58 -21 96 -39z
m-460 -23 c-3 -32 -11 -82 -17 -111 -6 -28 -8 -55 -4 -59 3 -4 22 1 41 10 l34
16 3 -26 c2 -21 -10 -39 -58 -87 -72 -72 -97 -133 -96 -237 1 -150 115 -291
259 -317 33 -6 49 -19 98 -76 32 -38 72 -81 89 -97 17 -15 28 -30 24 -34 -4
-4 -41 -12 -83 -18 -165 -24 -372 43 -488 157 -59 59 -115 152 -100 167 6 6
63 13 127 17 l116 7 -31 39 -32 38 -113 -4 -113 -4 -6 45 c-3 25 -7 60 -10 78
-4 38 2 44 78 72 74 27 91 28 77 2 -23 -44 -3 -127 41 -167 30 -27 41 -6 23
46 -21 60 -14 169 14 234 12 27 20 51 18 53 -3 3 -96 -32 -225 -84 -36 -15 31
151 93 232 52 67 91 99 163 135 82 42 86 41 78 -27z m1830 -142 c23 -59 34
-103 31 -117 -5 -17 -2 -24 9 -24 8 0 15 -6 15 -14 0 -7 3 -27 6 -44 l6 -31
-78 5 c-123 8 -121 7 -133 64 -6 28 -11 67 -11 85 0 19 -4 35 -9 35 -8 0 -35
89 -29 95 12 11 144 52 150 47 4 -4 23 -49 43 -101z m7593 80 c4 -9 19 -36 33
-61 15 -25 30 -54 33 -65 6 -20 4 -20 -49 -11 -49 9 -55 13 -55 36 -1 22 -12
60 -34 111 -5 12 0 14 29 11 21 -3 39 -11 43 -21z m-3929 -37 c2 -2 -9 -24
-24 -49 -15 -26 -25 -48 -23 -49 1 -1 22 -15 46 -30 45 -31 56 -44 20 -25 -18
10 -20 9 -15 -4 3 -9 1 -18 -6 -20 -9 -3 -8 -8 2 -20 7 -10 10 -17 7 -17 -4 0
-1 -6 6 -14 7 -8 21 -12 31 -10 21 4 25 10 -81 -146 -75 -109 -147 -207 -345
-467 -27 -35 -53 -63 -58 -63 -12 0 -10 3 53 98 l49 72 -1 180 -2 179 88 123
c99 138 153 211 163 218 4 3 14 18 24 33 14 22 23 27 40 21 12 -3 24 -8 26
-10z m3185 -223 c66 -66 114 -121 108 -125 -18 -11 -69 -108 -93 -176 -12 -36
-24 -96 -26 -135 -3 -38 -7 -72 -10 -75 -4 -4 -242 27 -275 36 -26 7 -28 28
-17 134 11 109 42 217 90 313 36 70 86 147 97 147 4 0 61 -53 126 -119z
m-7502 34 c5 -25 5 -25 -65 -25 -77 0 -79 7 -9 32 63 22 69 22 74 -7z m2080
-112 c3 -38 4 -69 3 -71 -4 -5 -495 34 -500 40 -3 3 -2 26 1 51 l7 47 242 0
243 0 4 -67z m-957 18 c3 -5 1 -12 -5 -16 -5 -3 -10 1 -10 9 0 18 6 21 15 7z
m6991 -72 c-9 -89 -11 -94 -43 -108 -25 -11 -30 -8 -90 51 -35 34 -63 65 -63
69 0 15 123 57 174 58 l29 1 -7 -71z m214 37 l55 -21 3 -67 3 -67 60 -41 60
-41 -6 48 c-4 26 -9 57 -11 68 -8 33 54 -43 86 -106 16 -31 34 -86 41 -121
l12 -64 -41 -70 c-22 -38 -52 -88 -66 -111 -32 -54 -96 -100 -168 -120 -32 -9
-58 -19 -58 -23 0 -3 14 -19 30 -35 17 -16 30 -32 30 -36 0 -3 -26 -14 -58
-23 -112 -31 -253 -16 -360 38 -50 25 -151 110 -142 119 3 3 51 11 108 17
l103 12 62 -28 c53 -25 74 -29 147 -29 72 0 92 4 135 27 104 55 159 142 159
253 0 90 -29 158 -93 218 -51 48 -140 87 -198 87 -32 0 -35 2 -29 23 3 12 9
46 12 75 l7 53 31 -7 c17 -3 56 -16 86 -28z m-4373 -91 c-1 -1 -23 -9 -49 -18
l-47 -15 16 33 16 33 33 -16 c19 -8 33 -16 31 -17z m3836 -236 c-54 -25 -100
-45 -102 -43 -7 6 23 111 46 163 l25 53 64 -63 65 -64 -98 -46z m-9549 99 c6
-36 5 -38 -32 -57 -21 -11 -45 -27 -52 -36 -13 -16 -15 -16 -21 2 -12 28 -10
63 3 63 6 0 27 18 46 41 38 44 46 42 56 -13z m1287 -18 c37 0 49 -4 49 -15 0
-33 -80 -165 -99 -165 -5 0 -11 6 -14 13 -3 6 -21 50 -41 96 l-36 84 46 -7
c26 -3 69 -6 95 -6z m-141 -220 l20 -40 -52 -30 c-29 -16 -58 -30 -64 -30 -18
0 -144 159 -144 182 0 3 17 12 38 19 53 17 79 36 103 76 l21 34 29 -86 c16
-47 38 -103 49 -125z m639 174 c10 -9 -43 -196 -78 -270 -47 -100 -135 -230
-160 -237 -10 -2 -27 0 -37 6 -26 13 -81 66 -106 100 l-20 28 45 57 c58 75
112 176 138 264 l21 70 97 -7 c53 -4 98 -9 100 -11z m-1721 -128 c62 -133 163
-252 289 -342 220 -158 523 -189 777 -79 70 30 82 33 96 20 8 -7 45 -28 81
-45 37 -17 75 -40 84 -51 18 -19 18 -20 -1 -34 -94 -75 -266 -150 -410 -180
-97 -21 -292 -23 -394 -6 -322 56 -598 250 -765 539 l-48 83 29 30 c35 37 95
73 172 105 32 13 58 24 59 24 0 0 15 -29 31 -64z m9592 -3 c0 -21 11 -62 25
-92 14 -30 24 -55 23 -56 -2 -1 -51 -5 -109 -9 -97 -7 -107 -6 -112 11 -2 10
-8 26 -12 35 -6 15 0 16 64 11 l71 -6 0 42 0 41 -52 0 c-28 0 -48 3 -44 8 7 7
122 50 139 51 4 1 7 -16 7 -36z m-546 -59 l129 -18 -39 -30 c-22 -16 -70 -61
-108 -99 -37 -38 -72 -65 -76 -60 -11 12 -48 130 -59 186 -7 42 -6 47 8 43 9
-3 74 -13 145 -22z m-2543 -41 c13 -16 12 -17 -3 -4 -10 7 -18 15 -18 17 0 8
8 3 21 -13z m2716 -125 c-7 -4 -15 -8 -19 -8 -3 0 -21 -12 -38 -26 -17 -15
-32 -25 -34 -23 -2 2 -7 19 -11 37 -5 22 -3 32 6 32 6 0 28 16 47 36 l35 36
13 -38 c10 -30 10 -40 1 -46z m-3737 -68 c-12 -16 -24 -30 -26 -30 -3 0 4 14
16 30 12 17 24 30 26 30 3 0 -4 -13 -16 -30z m-4206 -16 c24 -9 19 -20 -13
-34 -39 -16 -58 -4 -35 21 19 21 24 22 48 13z m8051 -56 c55 -68 140 -135 229
-180 175 -88 408 -94 589 -14 l52 23 70 -57 c39 -31 89 -69 112 -86 24 -16 43
-32 43 -35 0 -8 -143 -74 -215 -99 -191 -66 -454 -65 -649 2 -77 26 -185 80
-256 127 -99 65 -260 230 -260 266 0 7 20 25 45 40 46 26 161 74 180 74 6 0
32 -28 60 -61z m833 46 c-9 -9 -21 -13 -27 -10 -20 13 -11 26 16 26 25 0 26
-1 11 -16z m251 -140 c18 -31 54 -81 78 -111 l45 -55 -20 -21 -21 -20 -55 33
c-30 18 -81 57 -113 86 l-58 52 50 46 c28 25 52 45 55 46 3 0 20 -25 39 -56z
m-7783 -169 c25 -19 49 -35 53 -35 5 0 6 -12 3 -26 -4 -22 -8 -25 -31 -19 -46
11 -111 44 -111 55 0 11 29 60 36 60 2 0 24 -16 50 -35z m401 -130 c162 -24
465 -35 688 -25 209 10 441 26 510 35 34 5 57 -2 137 -39 l96 -45 608 3 c363
3 544 1 449 -4 -409 -19 -1387 -7 -1985 25 -303 17 -597 43 -620 56 -23 13 0
11 117 -6z"/>
<path d="M3290 1455 c0 -8 5 -15 10 -15 6 0 10 7 10 15 0 8 -4 15 -10 15 -5 0
-10 -7 -10 -15z"/>
<path d="M3330 1448 c0 -19 2 -20 10 -8 13 19 13 30 0 30 -5 0 -10 -10 -10
-22z"/>
<path d="M3365 1457 c-4 -10 -5 -21 -1 -24 10 -10 18 4 13 24 -4 17 -4 17 -12
0z"/>
<path d="M2607 2796 c-4 -10 -5 -21 -2 -24 9 -9 17 6 13 25 -3 17 -4 17 -11
-1z"/>
<path d="M2636 2775 c-3 -8 -1 -15 3 -15 5 0 11 7 15 15 3 8 1 15 -3 15 -5 0
-11 -7 -15 -15z"/>
<path d="M2670 2764 c0 -8 5 -12 10 -9 6 3 10 10 10 16 0 5 -4 9 -10 9 -5 0
-10 -7 -10 -16z"/>
<path d="M2706 2761 c-4 -7 -5 -15 -2 -18 9 -9 19 4 14 18 -4 11 -6 11 -12 0z"/>
<path d="M2736 2745 c-3 -8 -1 -15 3 -15 5 0 11 7 15 15 3 8 1 15 -3 15 -5 0
-11 -7 -15 -15z"/>
<path d="M3437 2525 c-4 -8 -2 -17 3 -20 6 -4 10 -4 10 -1 0 2 3 11 6 20 3 9
2 16 -4 16 -5 0 -12 -7 -15 -15z"/>
<path d="M3477 2524 c-4 -4 -7 -14 -7 -23 0 -11 3 -12 11 -4 6 6 10 16 7 23
-2 6 -7 8 -11 4z"/>
<path d="M3507 2505 c-4 -8 -2 -17 3 -20 6 -4 10 3 10 14 0 25 -6 27 -13 6z"/>
<path d="M3540 2488 c0 -19 2 -20 10 -8 13 19 13 30 0 30 -5 0 -10 -10 -10
-22z"/>
<path d="M3577 2494 c-4 -4 -7 -14 -7 -23 0 -11 3 -12 11 -4 6 6 10 16 7 23
-2 6 -7 8 -11 4z"/>
<path d="M3456 3598 c-66 -76 -44 -139 95 -275 110 -106 237 -163 365 -163 25
0 55 -5 66 -11 11 -6 18 -7 14 -1 -3 5 24 12 67 16 178 17 483 96 728 190 176
67 163 53 157 156 -3 48 -9 93 -13 100 -9 14 -86 9 -410 -28 -315 -35 -580
-37 -710 -4 -121 31 -272 62 -300 62 -15 0 -36 -15 -59 -42z"/>
<path d="M3957 3134 c-10 -11 13 -34 34 -34 10 0 21 5 24 10 3 6 -2 10 -12 10
-11 0 -24 5 -29 10 -6 6 -13 7 -17 4z"/>
</g>
</svg>
